<?xml version="1.0" standalone="no"?><!DOCTYPE svg PUBLIC "-//W3C//DTD SVG 1.1//EN" "http://www.w3.org/Graphics/SVG/1.1/DTD/svg11.dtd"><svg t="1757141358957" class="icon" viewBox="0 0 1024 1024" version="1.1" xmlns="http://www.w3.org/2000/svg" p-id="26901" xmlns:xlink="http://www.w3.org/1999/xlink" width="200" height="200"><path d="M240.4 490.4l54.2-60.8 230.5 158.9s91.6-137 228.8-255c137.2-118 230.5-165 230.5-165l23 23.8S851.5 297.9 726.8 490.4C602.1 682.9 558.4 788.5 558.4 788.5s-137.2-142.9-205.8-205c-68.6-62.1-112.2-93.1-112.2-93.1" fill="#231815" p-id="26902"></path><path d="M443.2 943c-232 0-420.7-188.7-420.7-420.7s188.7-420.7 420.7-420.7c96.5 0 187.4 31.8 262.6 92L692.7 210c-71.5-57.2-157.8-87.4-249.5-87.4-220.4 0-399.7 179.3-399.7 399.7C43.5 742.7 222.8 922 443.2 922 663.6 922 843 742.7 843 522.3h21c-0.1 232-188.8 420.7-420.8 420.7z" fill="#231815" p-id="26903"></path></svg>