<?xml version="1.0" standalone="no"?><!DOCTYPE svg PUBLIC "-//W3C//DTD SVG 1.1//EN" "http://www.w3.org/Graphics/SVG/1.1/DTD/svg11.dtd"><svg t="1757141109146" class="icon" viewBox="0 0 1024 1024" version="1.1" xmlns="http://www.w3.org/2000/svg" p-id="15130" xmlns:xlink="http://www.w3.org/1999/xlink" width="200" height="200"><path d="M568.785455 422.632727l-27.368728 7.633455s-76.520727 8.192-77.637818 8.192l-29.602909-82.106182c-0.186182-0.372364-0.372364-0.930909-0.558545-1.303273-3.723636-9.867636-14.708364-14.708364-24.576-10.984727-9.867636 3.723636-14.894545 14.708364-10.984728 24.576l39.284364 88.250182 0.558545 1.303273c1.675636 4.282182 3.537455 7.261091 10.24 8.750545 28.299636 6.888727 99.234909-18.990545 99.234909-18.990545 4.096-1.675636 12.101818-3.351273 11.17091-7.819637-0.930909-5.399273 18.804364-15.825455 10.24-17.501091z" fill="#E4BE91" p-id="15131"></path><path d="M447.581091 388.933818l-5.026909-21.410909c-4.096-17.687273-16.756364-34.629818-30.347637-31.464727l-2.978909 0.744727c-13.405091 3.165091-18.432 23.831273-14.149818 41.890909l5.026909 21.410909 47.476364-11.170909z" fill="#004F76" p-id="15132"></path><path d="M271.825455 545.698909l-23.45891 3.537455s-26.437818-33.140364-72.610909-32.954182c0-0.186182 52.875636-19.921455 96.069819 29.416727z" fill="#9E9E9F" p-id="15133"></path><path d="M582.749091 370.501818l6.330182 3.165091c0.186182 0.186182 0.372364 0.186182 0.558545 0.372364 0.186182 0.186182 0.372364 0.372364 0.558546 0.744727l12.101818 36.119273c0.558545 1.861818-2.234182 2.792727-2.792727 0.930909l-12.101819-35.746909-5.957818-2.978909c-1.675636-0.930909-0.372364-3.537455 1.303273-2.606546z" fill="#B4B4B5" p-id="15134"></path><path d="M574.743273 369.198545c-1.303273 8.005818 0.186182 14.894545 3.537454 15.453091 3.351273 0.558545 7.074909-5.585455 8.378182-13.591272 1.303273-8.005818-0.186182-14.894545-3.537454-15.453091-3.351273-0.372364-7.074909 5.585455-8.378182 13.591272z" fill="#C8C9CA" p-id="15135"></path><path d="M574.929455 368.826182c-1.303273 7.447273 0 13.963636 2.792727 14.336 2.792727 0.558545 6.144-5.213091 7.261091-12.660364 1.303273-7.447273 0-13.963636-2.792728-14.336-2.792727-0.558545-6.144 5.213091-7.26109 12.660364zM583.493818 412.578909c-8.005818 8.005818-12.288 16.756364-9.681454 19.549091 2.792727 2.792727 11.543273-1.489455 19.549091-9.681455 8.005818-8.005818 11.170909-16.570182 8.378181-19.362909-2.606545-2.606545-10.053818 1.489455-18.245818 9.495273z" fill="#FFFFFF" p-id="15136"></path><path d="M549.981091 364.171636c-1.675636 10.24 0.558545 18.990545 5.026909 19.735273 4.468364 0.744727 9.495273-6.888727 11.170909-17.128727 1.675636-10.24-0.558545-18.990545-5.026909-19.735273-4.468364-0.558545-9.495273 7.074909-11.170909 17.128727z" fill="#B4B4B5" p-id="15137"></path><path d="M551.098182 364.357818c-1.675636 10.24 0.372364 18.990545 4.468363 19.735273 4.096 0.744727 8.936727-7.074909 10.612364-17.128727 1.675636-10.24-0.372364-18.990545-4.468364-19.735273-4.096-0.744727-8.750545 6.888727-10.612363 17.128727z" fill="#C8C9CA" p-id="15138"></path><path d="M560.593455 364.357818l8.005818 3.909818c0.372364 0.186182 0.558545 0.372364 0.744727 0.558546 0.186182 0.186182 0.558545 0.558545 0.558545 0.930909l15.453091 45.800727c0.744727 2.234182-2.792727 3.351273-3.537454 1.117091l-15.266909-45.242182-7.633455-3.723636c-2.048-1.117091-0.372364-4.468364 1.675637-3.351273z" fill="#B4B4B5" p-id="15139"></path><path d="M611.979636 498.222545s-13.218909-26.065455 0.930909-29.78909c0 0 15.825455 6.888727 28.858182-5.957819 0 0 9.309091-30.533818-0.930909-48.779636-2.606545-4.654545-10.426182-4.654545-17.687273-3.723636 0 0 0.558545-3.723636-3.16509-4.282182l-19.549091-3.165091s-17.314909 20.107636-26.065455 18.990545c0 0-18.432 3.723636-15.639273 18.990546 0 0-3.165091 6.516364 7.633455 23.272727 0 0 5.771636 40.96 12.474182 58.461091 0-0.372364 32.768-10.053818 33.140363-24.017455z" fill="#FCD006" p-id="15140"></path><path d="M582.376727 423.377455c0.186182 0.930909 1.675636 1.303273 3.165091 0.930909 1.489455-0.372364 2.606545-1.489455 2.234182-2.420364l-2.606545-10.24c-0.186182-0.930909-1.675636-1.303273-3.165091-0.930909-1.489455 0.372364-2.606545 1.489455-2.234182 2.420364l2.606545 10.24z" fill="#2E2624" p-id="15141"></path><path d="M631.901091 441.995636l-29.789091-6.516363s-9.495273-13.591273-21.783273-15.453091c0 0-19.549091-3.351273-21.969454 2.606545-3.537455 3.909818-13.591273 60.136727 40.587636 38.912 0 0 6.144-6.516364 37.236364-4.840727-0.186182-0.186182 1.117091-8.750545-4.282182-14.708364z" fill="#FFE33F" p-id="15142"></path><path d="M560.407273 441.995636c-1.117091 4.468364 4.840727 9.867636 13.405091 11.915637 8.378182 2.048 16.197818 0 17.314909-4.468364 1.117091-4.468364-4.840727-9.867636-13.405091-11.915636-8.564364-2.048-16.197818 0-17.314909 4.468363z" fill="#2E2624" p-id="15143"></path><path d="M571.764364 447.208727c-6.516364-5.771636 0 14.894545-13.777455 8.378182-6.516364-3.165091-5.026909-13.963636 0.744727-20.48s14.894545-7.819636 20.293819-2.978909c5.399273 4.840727 3.909818 25.134545-7.261091 15.080727z" fill="#F0CDA3" p-id="15144"></path><path d="M680.494545 729.274182l15.453091-3.909818-13.591272-8.192c-3.909818-2.420364-5.213091-7.447273-2.792728-11.357091 2.420364-3.909818 7.447273-5.213091 11.357091-2.792728l13.591273 8.192-3.909818-15.45309c-1.117091-4.468364 1.675636-8.936727 5.957818-10.053819 4.468364-1.117091 8.936727 1.675636 10.053818 5.957819l3.909818 15.45309 8.192-13.591272c2.420364-3.909818 7.447273-5.213091 11.357091-2.792728 3.909818 2.420364 5.213091 7.447273 2.792728 11.357091l-8.192 13.591273 15.45309-3.909818c4.468364-1.117091 8.936727 1.675636 10.053819 5.957818 1.117091 4.468364-1.675636 8.936727-5.957819 10.053818l-15.45309 3.909818 13.591272 8.192c3.909818 2.420364 5.213091 7.447273 2.792728 11.357091-2.420364 3.909818-7.447273 5.213091-11.357091 2.792728l-13.591273-8.192 3.909818 15.453091c1.117091 4.468364-1.675636 8.936727-5.957818 10.053818-4.468364 1.117091-8.936727-1.489455-10.053818-5.957818l-3.909818-15.453091-8.192 13.591272c-2.420364 3.909818-7.447273 5.213091-11.357091 2.792728-3.909818-2.420364-5.213091-7.447273-2.792728-11.357091l8.192-13.591273-15.453091 3.909818c-4.468364 1.117091-8.936727-1.489455-10.053818-5.957818-1.117091-4.282182 1.489455-8.936727 5.957818-10.053818z" fill="#B4B4B5" p-id="15145"></path><path d="M701.160727 728.343273c0 9.122909 7.447273 16.570182 16.570182 16.570182s16.570182-7.447273 16.570182-16.570182-7.447273-16.570182-16.570182-16.570182-16.570182 7.447273-16.570182 16.570182z" fill="#C8C9CA" p-id="15146"></path><path d="M644.561455 747.333818c10.053818 40.215273 50.827636 64.605091 91.042909 54.551273 40.215273-10.053818 64.605091-50.827636 54.551272-91.042909-10.053818-40.215273-50.827636-64.605091-91.042909-54.551273-40.215273 10.053818-64.605091 50.827636-54.551272 91.042909z m38.353454-10.053818c-4.654545-18.618182 6.888727-37.981091 25.506909-42.635636s37.981091 6.888727 42.635637 25.506909-6.888727 37.981091-25.50691 42.635636-37.981091-6.888727-42.635636-25.506909z" fill="#2E2624" p-id="15147"></path><path d="M674.164364 739.886545c5.957818 23.831273 30.161455 38.353455 53.992727 32.395637 23.831273-5.957818 38.353455-30.161455 32.395636-53.992727-5.957818-23.831273-30.161455-38.353455-53.992727-32.395637-23.831273 5.957818-38.353455 30.161455-32.395636 53.992727z m8.750545-2.606545c-4.654545-18.618182 6.888727-37.981091 25.506909-42.635636s37.981091 6.888727 42.635637 25.506909-6.888727 37.981091-25.50691 42.635636-37.981091-6.888727-42.635636-25.506909z" fill="#C8C9CA" p-id="15148"></path><path d="M669.882182 614.958545s61.626182-27.741091 115.805091 39.098182c0 0-1.861818 5.585455-18.432 5.399273 0 0-73.914182-20.107636-105.378909 29.044364 0 0-19.549091 40.773818-33.512728 37.422545 0-0.186182-0.372364-101.841455 41.518546-110.964364z" fill="#ECC307" p-id="15149"></path><path d="M766.138182 659.083636c-9.122909-2.234182-75.031273-16.384-104.261818 29.230546 0 0-19.549091 40.773818-33.512728 37.422545 0 0-0.372364-73.169455 25.134546-101.096727 65.349818-20.666182 112.081455 33.512727 112.64 34.443636z" fill="#FCD006" p-id="15150"></path><path d="M252.276364 729.274182l15.453091-3.909818-13.591273-8.192c-3.909818-2.420364-5.213091-7.447273-2.792727-11.357091 2.420364-3.909818 7.447273-5.213091 11.35709-2.792728l13.591273 8.192-3.909818-15.45309c-1.117091-4.468364 1.489455-8.936727 5.957818-10.053819 4.468364-1.117091 8.936727 1.675636 10.053818 5.957819l3.909819 15.45309 8.192-13.591272c2.420364-3.909818 7.447273-5.213091 11.35709-2.792728 3.909818 2.420364 5.213091 7.447273 2.792728 11.357091l-8.192 13.591273 15.453091-3.909818c4.468364-1.117091 8.936727 1.675636 10.053818 5.957818 1.117091 4.468364-1.489455 8.936727-5.957818 10.053818l-15.453091 3.909818 13.591272 8.192c3.909818 2.420364 5.213091 7.447273 2.792728 11.357091-2.420364 3.909818-7.447273 5.213091-11.357091 2.792728l-13.591273-8.192 3.909818 15.453091c1.117091 4.468364-1.489455 8.936727-5.957818 10.053818-4.468364 1.117091-8.936727-1.489455-10.053818-5.957818l-3.909818-15.453091-8.192 13.591272c-2.420364 3.909818-7.447273 5.213091-11.357091 2.792728-3.909818-2.420364-5.213091-7.447273-2.792727-11.357091l8.192-13.591273-15.453091 3.909818c-4.468364 1.117091-8.936727-1.489455-10.053819-5.957818-1.117091-4.282182 1.489455-8.936727 5.957819-10.053818z" fill="#B4B4B5" p-id="15151"></path><path d="M216.343273 747.333818c10.053818 40.215273 50.827636 64.605091 91.042909 54.551273 40.215273-10.053818 64.605091-50.827636 54.551273-91.042909-10.053818-40.215273-50.827636-64.605091-91.04291-54.551273-40.215273 10.053818-64.605091 50.827636-54.551272 91.042909z m38.353454-10.053818c-4.654545-18.618182 6.888727-37.981091 25.506909-42.635636s37.981091 6.888727 42.635637 25.506909-6.888727 37.981091-25.506909 42.635636-37.981091-6.888727-42.635637-25.506909z" fill="#2E2624" p-id="15152"></path><path d="M245.946182 739.886545c5.957818 23.831273 30.161455 38.353455 53.992727 32.395637 23.831273-5.957818 38.353455-30.161455 32.395636-53.992727-5.957818-23.831273-30.161455-38.353455-53.992727-32.395637-23.831273 5.957818-38.353455 30.161455-32.395636 53.992727z m8.750545-2.606545c-4.654545-18.618182 6.888727-37.981091 25.506909-42.635636s37.981091 6.888727 42.635637 25.506909-6.888727 37.981091-25.506909 42.635636-37.981091-6.888727-42.635637-25.506909z" fill="#C8C9CA" p-id="15153"></path><path d="M637.114182 692.968727s5.026909 50.455273-53.434182 57.157818H485.934545s-41.890909 7.633455-83.409454-2.978909c0 0-80.058182-19.921455-107.240727-17.873454 0 0-38.167273-55.668364-40.773819-75.217455l-8.378181 8.564364s-26.996364 11.357091-43.380364 72.797091c0 0-14.149818 7.447273-13.218909 1.675636 0 0-9.122909-3.537455 0-13.218909 0 0 9.122909-9.681455 0-8.936727 0 0-8.936727 3.351273-4.096-9.122909l21.224727-37.050182s17.314909-7.447273 14.708364-15.639273c0 0 74.845091-34.071273 99.421091 3.909818 0 0 91.229091-31.650909 81.733818 40.587637-6.516364 50.269091 115.246545 30.161455 234.589091-4.654546z" fill="#342E2C" p-id="15154"></path><path d="M419.281455 589.265455l50.827636 3.909818s8.192 1.303273 7.633454-10.426182l-10.426181-49.338182s-53.061818 3.723636-94.952728-4.282182c0 0-18.432-11.170909-40.029091-13.032727 0 0-75.217455 3.165091-86.946909 0 0 0-11.357091 2.420364-19.735272 67.770182 0 0 13.591273 6.144 17.873454 16.011636 0 0.372364 58.461091-64.605091 175.755637-10.612363z" fill="#2E2624" p-id="15155"></path><path d="M608.814545 496.174545l-31.650909 22.528s27.927273 56.599273 21.410909 101.096728c0 0-16.384 38.539636-21.410909 92.904727l-123.997091-12.288S441.250909 647.912727 469.364364 619.985455c0 0 5.585455-12.288 0-29.60291l-49.896728-0.744727s-3.351273-24.576-33.698909-30.347636c0 0-95.511273-8.378182-145.780363 35.746909-1.861818-3.537455-13.405091-11.357091-14.149819-10.426182-8.192 10.984727-21.597091 47.476364-23.086545 70.562909-0.186182 3.537455 3.909818 9.309091 3.909818 9.309091l170.914909 6.516364s10.053818 9.867636 18.245818 41.890909c0 0 210.944 38.539636 224.16291-8.192 0 0 45.242182-122.321455 23.831272-152.855273L608.814545 496.174545z" fill="#ECC307" p-id="15156"></path><path d="M603.229091 713.634909c6.516364-5.026909 12.846545-10.24 18.804364-15.639273-1.489455 4.096-2.234182 6.516364-2.234182 6.516364-2.792727 10.24-15.080727 16.384-32.395637 19.735273 5.399273-3.351273 10.798545-6.888727 15.825455-10.612364zM385.768727 558.917818c30.347636 5.771636 33.698909 30.347636 33.698909 30.347637s7.074909 37.050182-16.384 65.908363c-11.543273 14.149818-25.506909 15.453091-25.506909 15.453091l-170.914909-6.516364c21.224727-133.864727 179.106909-105.192727 179.106909-105.192727z" fill="#FCD006" p-id="15157"></path><path d="M385.768727 558.917818c30.347636 5.771636 33.698909 30.347636 33.698909 30.347637s7.074909 37.050182-16.384 65.908363c-11.543273 14.149818-25.506909 15.453091-25.506909 15.453091l-22.155636-0.930909c3.351273-1.489455 6.516364-3.165091 9.495273-5.213091 11.357091-8.192 20.293818-18.804364 26.251636-32.395636 39.098182-88.622545-92.16-52.875636-102.027636-47.848728-34.443636 17.501091-39.284364 36.864-39.284364 36.864-1.117091 1.489455-5.585455 3.537455-6.702545 5.02691-15.080727 6.330182-25.879273 21.410909-26.437819 38.353454l-10.24-0.372364c21.410909-133.864727 179.293091-105.192727 179.293091-105.192727z" fill="#FFE33F" p-id="15158"></path><path d="M250.973091 621.102545c-0.930909 1.489455-16.011636 26.996364-18.432 26.437819-5.026909-1.861818-5.957818-1.861818-10.24-1.861819-5.213091 0.186182-9.122909 1.861818-13.032727 5.02691 2.420364-11.543273 5.026909-17.128727 9.309091-26.065455 2.420364-5.957818 31.650909-7.074909 32.395636-3.537455z" fill="#342E2C" p-id="15159"></path><path d="M249.111273 621.474909c-0.744727 1.489455-15.080727 25.506909-17.314909 24.762182-4.840727-1.861818-6.702545-1.675636-9.309091-1.675636-4.096 0-9.309091 1.675636-13.032728 4.654545 2.420364-10.798545 4.468364-15.266909 8.564364-23.645091 2.420364-5.771636 30.533818-7.074909 31.092364-4.096z" fill="#FFFFFF" p-id="15160"></path><path d="M221.370182 653.312c43.380364 5.399273 31.278545-2.792727 49.896727-5.771636 12.660364-1.117091 112.081455 4.282182 131.258182 8.192-11.357091 13.777455-24.948364 14.894545-24.948364 14.894545l-162.722909-6.330182c1.117091-3.909818 2.048-9.867636 6.516364-10.984727z" fill="#F0C607" p-id="15161"></path><path d="M354.304 662.621091c15.080727 1.861818 14.336 1.303273 27.182545 3.537454-2.048 1.117091-4.654545 2.234182-6.330181 2.792728-8.564364-0.930909-13.405091-0.744727-26.065455-2.048 1.303273-1.117091 3.909818-2.978909 5.213091-4.282182zM360.261818 655.173818c0.930909-1.303273 1.489455-2.048 2.234182-3.351273 18.059636 1.303273 23.645091 2.234182 32.768 2.97891-1.675636 1.861818-2.048 2.420364-3.537455 3.909818-21.410909-3.165091-21.038545-2.978909-31.464727-3.537455zM388.375273 661.504c-1.675636 1.489455-3.537455 2.606545-5.213091 3.723636-0.186182-0.186182-10.24-2.792727-27.741091-3.909818 0.930909-1.117091 2.606545-2.792727 3.537454-3.909818 13.777455 1.303273 12.288 1.117091 29.416728 4.096z" fill="#B4B4B5" p-id="15162"></path><path d="M450.56 679.377455c0.558545 12.101818 2.420364 20.852364 2.420364 20.852363l123.997091 12.288c1.303273-14.336 3.351273-27.554909 5.771636-39.284363 12.101818-32.954182 47.848727-39.470545 56.599273-32.954182-8.564364 34.071273-19.735273 64.046545-19.735273 64.046545-13.218909 46.731636-226.769455 2.420364-226.769455 2.420364-4.468364-17.873455-8.378182-25.134545-15.639272-36.119273 6.516364 0 72.610909 8.750545 73.355636 8.750546z" fill="#2E2624" p-id="15163"></path><path d="M434.176 700.043636l-3.537455-13.777454-37.98109-5.771637 0.744727 15.453091z" fill="#2E2624" p-id="15164"></path><path d="M688.314182 610.676364s15.453091-5.771636 15.453091-20.48c0 0 2.606545-32.768-67.211637-105.192728 0 0-8.564364-6.144-25.879272 9.867637 0 0-24.576 12.288 0 41.890909 0 0 35.746909 45.242182 21.038545 74.286545l-31.837091 95.697455s-6.330182 13.591273-40.773818 8.564363l-166.260364-9.867636s6.144 28.299636 55.482182 38.167273h135.540364s36.119273 1.303273 50.455273-39.470546c-0.186182 0.186182 14.336-71.866182 53.992727-93.463272z" fill="#ED7700" p-id="15165"></path><path d="M203.496727 658.711273s16.942545-39.656727 20.107637-54.923637c0 0 1.117091-4.468364-4.468364-7.633454-3.165091-1.675636-24.762182 52.689455-15.639273 62.557091z" fill="#CE121B" p-id="15166"></path><path d="M604.532364 622.219636c0 4.840727 3.909818 8.750545 8.750545 8.750546s8.750545-3.909818 8.750546-8.750546-3.909818-8.750545-8.750546-8.750545-8.750545 3.909818-8.750545 8.750545z" fill="#2E2624" p-id="15167"></path><path d="M606.021818 622.219636c0 4.096 3.351273 7.447273 7.447273 7.447273s7.447273-3.351273 7.447273-7.447273-3.351273-7.447273-7.447273-7.447272c-4.282182 0.186182-7.447273 3.351273-7.447273 7.447272z" fill="#ED7700" p-id="15168"></path><path d="M305.152 737.838545c1.117091 7.819636 8.378182 13.218909 16.197818 12.101819l47.662546-7.074909c7.819636-1.117091 13.218909-8.378182 12.101818-16.197819l-2.420364-16.570181c-1.117091-7.819636-8.378182-13.218909-16.197818-12.101819l-47.662545 7.074909c-7.819636 1.117091-13.218909 8.378182-12.101819 16.197819l2.420364 16.570181z" fill="#3E3A39" p-id="15169"></path><path d="M280.762182 735.790545c3.537455 14.522182 18.245818 23.272727 32.768 19.549091 14.522182-3.537455 23.272727-18.245818 19.549091-32.768-3.537455-14.522182-18.245818-23.272727-32.768-19.549091-14.336 3.723636-23.086545 18.245818-19.549091 32.768z" fill="#3E3A39" p-id="15170"></path><path d="M615.144727 491.147636s16.197818-18.432 34.257455-4.840727c0 0 22.714182 25.693091 40.773818 66.653091 0 0-45.428364-44.497455-55.296-56.785455 0 0-9.122909-10.053818-19.735273-5.026909z" fill="#FCD006" p-id="15171"></path><path d="M631.901091 438.644364c0 14.336 3.165091 26.065455 7.074909 26.065454 3.909818 0 7.074909-11.729455 7.074909-26.065454s-3.165091-26.065455-7.074909-26.065455c-3.909818 0-7.074909 11.729455-7.074909 26.065455z" fill="#FFFFFF" p-id="15172"></path><path d="M557.614545 443.857455c0 5.957818 4.840727 10.798545 10.798546 10.798545 5.957818 0 10.798545-4.840727 10.798545-10.798545 0-5.957818-4.840727-10.798545-10.798545-10.798546-5.957818 0-10.798545 4.840727-10.798546 10.798546z" fill="#3E3A39" p-id="15173"></path><path d="M561.338182 443.857455c0 3.909818 3.165091 7.074909 7.074909 7.074909 3.909818 0 7.074909-3.165091 7.074909-7.074909 0-3.909818-3.165091-7.074909-7.074909-7.07491-3.909818-0.186182-7.074909 3.165091-7.074909 7.07491z" fill="#2E2624" p-id="15174"></path><path d="M580.887273 446.091636c-0.372364 1.303273 1.489455 2.978909 3.909818 3.537455 2.606545 0.558545 4.840727 0 5.213091-1.303273 0.372364-1.303273-1.489455-2.978909-3.909818-3.537454-2.606545-0.558545-5.026909 0-5.213091 1.303272z" fill="#DBDCDC" p-id="15175"></path><path d="M578.839273 446.836364c0 2.234182 1.861818 3.909818 3.909818 3.909818 2.234182 0 3.909818-1.861818 3.909818-3.909818 0-2.234182-1.861818-3.909818-3.909818-3.909819s-3.909818 1.675636-3.909818 3.909819z" fill="#C8C9CA" p-id="15176"></path><path d="M682.728727 590.568727c2.792727-1.675636-7.261091-26.251636-14.336-29.602909 0 0-21.969455-13.218909-25.879272-11.543273-3.165091 1.303273 2.234182 15.080727 13.40509 33.69891-0.186182 0 21.597091 10.426182 26.810182 7.447272z" fill="#FFE33F" p-id="15177"></path><path d="M237.940364 540.858182l-4.282182 15.453091s-21.969455-21.410909-27.182546-31.650909c0.186182 0 11.915636-1.117091 31.464728 16.197818z" fill="#B4B4B5" p-id="15178"></path><path d="M108.730182 497.477818c-0.372364 8.564364 7.074909 15.825455 16.756363 16.197818l160.302546 7.633455c9.681455 0.372364 17.687273-6.144 18.245818-14.522182l5.771636-120.832c0.372364-8.564364-7.074909-15.825455-16.756363-16.197818l-160.488727-7.633455c-9.681455-0.372364-17.687273 6.144-18.245819 14.522182l-5.585454 120.832z" fill="#D66B00" p-id="15179"></path><path d="M112.267636 498.408727c-0.372364 8.192 6.888727 15.266909 16.197819 15.639273l154.903272 7.447273c9.309091 0.372364 17.128727-5.771636 17.501091-13.963637l5.585455-116.363636c0.372364-8.192-6.888727-15.266909-16.197818-15.639273l-154.903273-7.447272c-9.309091-0.372364-17.128727 5.771636-17.501091 13.963636l-5.585455 116.363636z" fill="#ED7700" p-id="15180"></path><path d="M265.495273 559.848727h-23.645091S220.625455 523.170909 175.010909 516.468364c-0.186182 0 54.923636-11.729455 90.484364 43.380363z" fill="#C8C9CA" p-id="15181"></path><path d="M519.633455 692.410182l-2.048 14.336s60.509091 16.384 80.244363-0.744727c0 0 15.266909-14.149818-39.470545-27.182546 0-0.186182-18.990545 10.612364-38.725818 13.591273z" fill="#1F63A2" p-id="15182"></path><path d="M432.686545 487.424s116.736 30.72 127.348364 45.056c0 0 12.660364 24.762182 1.117091 146.711273l-40.96 16.756363c-6.144-3.165091 6.888727-14.708364 5.213091-23.086545-11.357091-58.088727-5.213091-100.538182-5.213091-100.538182s-115.246545-13.405091-129.396364-30.347636c-24.203636-28.858182-10.053818-51.758545-10.053818-51.758546l51.944727-2.792727z" fill="#00162C" p-id="15183"></path><path d="M385.210182 290.816h36.305454v39.098182h-36.305454z" fill="#E4BE91" p-id="15184"></path><path d="M455.028364 279.458909c-2.048-2.978909-5.213091-6.516364-8.005819-9.309091v-2.792727c0-30.161455-2.606545-54.737455-39.098181-54.737455-21.597091 0-40.215273 10.24-40.215273 53.248 0 39.842909 35.746909 56.785455 52.317091 54.737455 21.969455-2.606545 25.693091-24.576 26.065454-37.794909 10.24-0.930909 8.936727-3.351273 8.936728-3.351273z" fill="#F0CDA3" p-id="15185"></path><path d="M392.657455 258.234182s8.005818 5.771636 8.378181 19.362909h-5.957818s1.489455-15.266909-9.867636-13.777455c0 0-11.543273 5.213091 2.606545 22.714182l-2.606545 28.485818s-9.122909 2.792727-16.197818-11.915636c-4.282182-8.750545-5.213091-25.693091-9.122909-53.434182 0 0-2.606545-22.714182 18.059636-40.029091 0 0 34.257455-21.597091 72.797091 4.468364 0 0 10.798545 4.096 12.660363-1.303273 0 0 5.585455 12.288-8.378181 14.149818 0 0 6.144 21.969455-10.612364 23.645091 0 0 4.096-12.474182-5.957818-18.990545 0 0-2.048 13.032727-24.762182 13.032727 0 0 6.516364-8.564364 2.792727-11.915636 0-0.372364-32.581818-6.330182-23.831272 25.506909z" fill="#2E2624" p-id="15186"></path><path d="M439.947636 248.925091s-7.819636-6.330182-17.314909 2.792727c0 0-1.675636 0.744727-1.117091-0.930909 0 0 7.074909-9.867636 19.362909-3.909818 0-0.186182 2.606545 2.048-0.930909 2.048zM438.272 260.468364c0 4.468364-1.489455 8.192-3.351273 8.192s-4.282182-2.978909-4.282182-7.447273 2.420364-8.936727 4.282182-8.936727c1.861818 0 3.351273 3.723636 3.351273 8.192z" fill="#2E2624" p-id="15187"></path><path d="M434.920727 256.558545c0 0.930909-0.558545 1.489455-1.303272 1.489455-0.744727 0-1.303273-0.744727-1.303273-1.489455 0-0.930909 0.558545-1.489455 1.303273-1.489454 0.744727-0.186182 1.303273 0.558545 1.303272 1.489454zM437.713455 265.122909c0 0.372364-0.186182 0.744727-0.558546 0.744727-0.372364 0-0.558545-0.372364-0.558545-0.744727s0.186182-0.744727 0.558545-0.744727c0.372364 0 0.558545 0.186182 0.558546 0.744727z" fill="#FFFFFF" p-id="15188"></path><path d="M450.932364 483.328c-1.861818 15.266909-15.453091-3.165091-34.629819 9.867636-19.176727 12.846545-25.320727 17.128727-25.320727 17.128728-6.888727 0-26.624 1.489455-21.597091-33.885091 7.074909-48.593455-1.675636-75.031273-1.675636-75.031273-7.819636-41.332364 10.612364-71.307636 17.501091-71.307636h36.305454c6.888727 0 43.008 32.395636 37.422546 76.706909l-8.005818 76.520727z" fill="#1E62A1" p-id="15189"></path><path d="M402.525091 329.914182c-21.224727-0.186182-42.821818 29.975273-35.002182 71.307636 0 0 3.723636 11.357091 4.282182 32.954182 9.495273 4.282182 21.969455 4.840727 30.906182 5.771636 19.549091 1.861818 36.677818-1.117091 53.434182-8.378181l2.606545-24.762182c5.771636-44.497455-35.002182-76.706909-56.226909-76.893091zM446.836364 415.185455c-12.474182 18.059636-51.572364 10.984727-59.764364 6.888727-9.495273-4.840727-9.681455-12.474182-13.591273-31.278546-3.165091-15.825455 1.489455-38.912 9.309091-46.173091 10.24-9.309091 23.086545-11.357091 35.188364-5.771636 24.017455 10.798545 43.194182 55.482182 28.858182 76.334546z" fill="#ED7700" p-id="15190"></path><path d="M460.055273 429.521455c0 1.303273-1.117091 2.420364-2.420364 2.420363-1.303273 0-2.420364-1.117091-2.420364-2.420363v-28.113455c0-1.303273 1.117091-2.420364 2.420364-2.420364 1.303273 0 2.420364 1.117091 2.420364 2.420364v28.113455z" fill="#ED7700" p-id="15191"></path><path d="M458.379636 401.780364v27.182545c0.930909-0.186182 1.489455-0.930909 1.489455-1.861818v-23.272727c0-1.117091-0.744727-1.861818-1.489455-2.048zM401.780364 331.031273c-14.894545 0-25.134545 16.756364-25.134546 16.756363 0 0.744727 0.558545 1.117091 1.117091 1.117091s1.117091-1.117091 1.117091-1.117091c0.930909-2.048 10.984727-14.149818 23.086545-14.522181 11.170909-0.186182 24.389818 9.495273 24.948364 9.495272 0.744727 0 1.303273-0.558545 1.303273-1.303272 0.186182-0.372364-15.639273-10.426182-26.437818-10.426182zM449.256727 422.446545c-2.234182 0.186182-4.654545 1.117091-6.888727 1.861819-6.702545 2.234182-13.218909 3.909818-20.293818 4.840727-5.585455 0.744727-11.357091 0.744727-16.942546 0.186182-6.330182-0.558545-14.149818-0.372364-19.921454-2.978909-2.234182-1.117091-8.936727-6.330182-8.936727 0.558545v0.744727c0 3.165091 2.420364 5.399273 5.957818 6.888728 0.186182 0 0.372364 0.186182 0.558545 0.186181 1.303273 0.558545 2.606545 0.930909 3.909818 1.117091 3.909818 0.930909 8.378182 1.489455 12.288 1.675637 9.867636 1.489455 19.549091 1.861818 29.602909 0 7.819636-1.303273 17.501091-3.909818 22.900364-10.24 2.048-2.606545 1.117091-5.026909-2.234182-4.840728z" fill="#DBDCDC" p-id="15192"></path><path d="M567.109818 429.707636l-27.368727 7.633455s-76.520727 8.192-77.637818 8.192l-29.602909-82.106182c-0.186182-0.372364-0.372364-0.930909-0.558546-1.303273-3.723636-9.867636-14.708364-14.708364-24.576-10.984727-9.867636 3.723636-14.894545 14.708364-10.984727 24.576l39.284364 88.250182 0.558545 1.303273c1.675636 4.282182 3.537455 7.261091 10.24 8.750545 28.299636 6.888727 99.234909-18.990545 99.234909-18.990545 4.096-1.675636 12.474182-3.537455 11.170909-7.819637-4.468364-15.266909 18.804364-15.825455 10.24-17.501091z" fill="#F0CDA3" p-id="15193"></path><path d="M445.905455 396.008727l-5.02691-21.410909c-4.096-17.687273-16.756364-34.629818-30.347636-31.464727l-2.978909 0.744727c-13.405091 3.165091-18.432 23.831273-14.149818 41.890909l5.026909 21.410909 47.476364-11.170909z" fill="#2A98D5" p-id="15194"></path><path d="M389.12 292.491636s11.543273 22.900364 30.347636 27.927273c0 0 4.654545 1.489455 10.984728-2.420364 0 0-26.251636-9.309091-33.140364-29.78909 0-0.186182-7.261091-5.026909-8.192 4.282181z" fill="#00162C" p-id="15195"></path><path d="M466.385455 233.099636c-111.336727-7.261091-36.864 69.073455-70.56291 69.073455-33.698909 0-52.317091-28.113455-48.034909-62.557091 5.771636-45.428364 36.119273-56.785455 67.025455-56.785455 33.698909 0.186182 57.530182 23.272727 51.572364 50.269091z" fill="#FCD006" p-id="15196"></path><path d="M388.561455 263.074909c0 5.213091-4.282182 9.495273-9.495273 9.495273s-9.495273-4.282182-9.495273-9.495273 4.282182-9.495273 9.495273-9.495273c5.213091 0.186182 9.495273 4.282182 9.495273 9.495273z" fill="#DBDCDC" p-id="15197"></path></svg>